<svg width="512" height="512" viewBox="0 0 512 512" fill="none" xmlns="http://www.w3.org/2000/svg">
  <rect width="512" height="512" rx="120" fill="#0B0F1A"/>
  <rect x="110" y="140" width="50" height="232" rx="25" fill="#F97066"/>
  <path d="M180 140 H 260 C 330 140 380 190 380 256 C 380 322 330 372 260 372 H 180 V 140 Z" fill="#6366F1"/>
  <path d="M230 190 H 260 C 295 190 330 220 330 256 C 330 292 295 322 260 322 H 230 V 190 Z" fill="#0B0F1A"/>
  
  <defs>
    <linearGradient id="grad_coral" x1="180" y1="140" x2="380" y2="372" gradientUnits="userSpaceOnUse">
      <stop offset="0%" stop-color="#10B981" stop-opacity="0"/>
      <stop offset="100%" stop-color="#10B981" stop-opacity="0.6"/>
    </linearGradient>
  </defs>
  
  <path d="M180 140 H 260 C 330 140 380 190 380 256 C 380 322 330 372 260 372 H 180 V 140 Z" fill="url(#grad_coral)" style="mix-blend-mode: overlay;"/>
</svg>
